HIERARCHY
ROOT Hips
{
    OFFSET   0.000000   0.000000   0.000000
    CHANNELS 6 Xposition Yposition Zposition Zrotation Xrotation Yrotation
    JOINT Chest
    {
        OFFSET   0.000000   8.007230   0.000000
        CHANNELS 3 Zrotation Xrotation Yrotation
        JOINT Chest2
        {
            OFFSET   0.000000  22.077100   0.000000
            CHANNELS 3 Zrotation Xrotation Yrotation
            JOINT Neck
            {
                OFFSET   0.000000  23.255100   0.000000
                CHANNELS 3 Zrotation Xrotation Yrotation
                JOINT Head
                {
                    OFFSET   0.000000  14.370100   1.956600
                    CHANNELS 3 Zrotation Xrotation Yrotation
                    End Site
                    {
                        OFFSET   0.000000  19.566000   0.000000
                    }
                }
            }
            JOINT LeftCollar
            {
                OFFSET   3.911900  19.017000  -0.467063
                CHANNELS 3 Zrotation Xrotation Yrotation
                JOINT LeftShoulder
                {
                    OFFSET  10.383700   0.000000   0.000000
                    CHANNELS 3 Zrotation Xrotation Yrotation
                    JOINT LeftElbow
                    {
                        OFFSET  26.662100   0.001193   0.000980
                        CHANNELS 3 Zrotation Xrotation Yrotation
                        JOINT LeftWrist
                        {
                            OFFSET  28.869000  -0.000059  -0.000082
                            CHANNELS 3 Zrotation Xrotation Yrotation
                            JOINT LeftFinger0
                            {
                                OFFSET   2.044650  -2.323450   3.252850
                                CHANNELS 3 Zrotation Xrotation Yrotation
                                JOINT LeftFinger01
                                {
                                    OFFSET   3.088130   0.000000   0.000000
                                    CHANNELS 3 Zrotation Xrotation Yrotation
                                    JOINT LeftFinger02
                                    {
                                        OFFSET   2.639460   0.000000   0.000000
                                        CHANNELS 3 Zrotation Xrotation Yrotation
                                        End Site
                                        {
                                            OFFSET   2.582190   0.000000   0.000000
                                        }
                                    }
                                }
                            }
                            JOINT LeftFinger1
                            {
                                OFFSET   8.364480   0.000000   3.252850
                                CHANNELS 3 Zrotation Xrotation Yrotation
                                JOINT LeftFinger11
                                {
                                    OFFSET   4.646930   0.000000   0.000000
                                    CHANNELS 3 Zrotation Xrotation Yrotation
                                    JOINT LeftFinger12
                                    {
                                        OFFSET   2.323470   0.000000   0.000000
                                        CHANNELS 3 Zrotation Xrotation Yrotation
                                        End Site
                                        {
                                            OFFSET   2.273050   0.000000   0.000000
                                        }
                                    }
                                }
                            }
                            JOINT LeftFinger2
                            {
                                OFFSET   8.364490   0.000016   1.078090
                                CHANNELS 3 Zrotation Xrotation Yrotation
                                JOINT LeftFinger21
                                {
                                    OFFSET   5.111610   0.000000   0.000000
                                    CHANNELS 3 Zrotation Xrotation Yrotation
                                    JOINT LeftFinger22
                                    {
                                        OFFSET   2.788150   0.000016   0.000000
                                        CHANNELS 3 Zrotation Xrotation Yrotation
                                        End Site
                                        {
                                            OFFSET   2.727660   0.000000   0.000000
                                        }
                                    }
                                }
                            }
                            JOINT LeftFinger3
                            {
                                OFFSET   7.899780   0.000015  -1.078090
                                CHANNELS 3 Zrotation Xrotation Yrotation
                                JOINT LeftFinger31
                                {
                                    OFFSET   4.646930   0.000000   0.000000
                                    CHANNELS 3 Zrotation Xrotation Yrotation
                                    JOINT LeftFinger32
                                    {
                                        OFFSET   2.323470   0.000000   0.000000
                                        CHANNELS 3 Zrotation Xrotation Yrotation
                                        End Site
                                        {
                                            OFFSET   2.273050   0.000000   0.000000
                                        }
                                    }
                                }
                            }
                            JOINT LeftFinger4
                            {
                                OFFSET   7.435090   0.000000  -3.252850
                                CHANNELS 3 Zrotation Xrotation Yrotation
                                JOINT LeftFinger41
                                {
                                    OFFSET   3.717550   0.000000   0.000000
                                    CHANNELS 3 Zrotation Xrotation Yrotation
                                    JOINT LeftFinger42
                                    {
                                        OFFSET   1.858770   0.000000   0.000000
                                        CHANNELS 3 Zrotation Xrotation Yrotation
                                        End Site
                                        {
                                            OFFSET   1.818440   0.000000   0.000000
                                        }
                                    }
                                }
                            }
                        }
                    }
                }
            }
            JOINT RightCollar
            {
                OFFSET  -3.911910  19.017000  -0.467062
                CHANNELS 3 Zrotation Xrotation Yrotation
                JOINT RightShoulder
                {
                    OFFSET -10.383700   0.000014   0.000000
                    CHANNELS 3 Zrotation Xrotation Yrotation
                    JOINT RightElbow
                    {
                        OFFSET -26.662100   0.001225   0.001091
                        CHANNELS 3 Zrotation Xrotation Yrotation
                        JOINT RightWrist
                        {
                            OFFSET -28.869000  -0.000020  -0.000085
                            CHANNELS 3 Zrotation Xrotation Yrotation
                            JOINT RightFinger0
                            {
                                OFFSET  -2.044650  -2.323490   3.252850
                                CHANNELS 3 Zrotation Xrotation Yrotation
                                JOINT RightFinger01
                                {
                                    OFFSET  -3.088130   0.000000   0.000000
                                    CHANNELS 3 Zrotation Xrotation Yrotation
                                    JOINT RightFinger02
                                    {
                                        OFFSET  -2.639460   0.000000   0.000000
                                        CHANNELS 3 Zrotation Xrotation Yrotation
                                        End Site
                                        {
                                            OFFSET  -2.582190   0.000000   0.000000
                                        }
                                    }
                                }
                            }
                            JOINT RightFinger1
                            {
                                OFFSET  -8.364480   0.000000   3.252850
                                CHANNELS 3 Zrotation Xrotation Yrotation
                                JOINT RightFinger11
                                {
                                    OFFSET  -4.646930   0.000000   0.000000
                                    CHANNELS 3 Zrotation Xrotation Yrotation
                                    JOINT RightFinger12
                                    {
                                        OFFSET  -2.323470   0.000000   0.000000
                                        CHANNELS 3 Zrotation Xrotation Yrotation
                                        End Site
                                        {
                                            OFFSET  -2.273050   0.000000   0.000000
                                        }
                                    }
                                }
                            }
                            JOINT RightFinger2
                            {
                                OFFSET  -8.364480   0.000000   1.078090
                                CHANNELS 3 Zrotation Xrotation Yrotation
                                JOINT RightFinger21
                                {
                                    OFFSET  -5.111620   0.000000   0.000000
                                    CHANNELS 3 Zrotation Xrotation Yrotation
                                    JOINT RightFinger22
                                    {
                                        OFFSET  -2.788160   0.000000   0.000000
                                        CHANNELS 3 Zrotation Xrotation Yrotation
                                        End Site
                                        {
                                            OFFSET  -2.727660   0.000000   0.000000
                                        }
                                    }
                                }
                            }
                            JOINT RightFinger3
                            {
                                OFFSET  -7.899780   0.000000  -1.078090
                                CHANNELS 3 Zrotation Xrotation Yrotation
                                JOINT RightFinger31
                                {
                                    OFFSET  -4.646930   0.000000   0.000000
                                    CHANNELS 3 Zrotation Xrotation Yrotation
                                    JOINT RightFinger32
                                    {
                                        OFFSET  -2.323470   0.000000   0.000000
                                        CHANNELS 3 Zrotation Xrotation Yrotation
                                        End Site
                                        {
                                            OFFSET  -2.273050   0.000000   0.000000
                                        }
                                    }
                                }
                            }
                            JOINT RightFinger4
                            {
                                OFFSET  -7.435090   0.000000  -3.252850
                                CHANNELS 3 Zrotation Xrotation Yrotation
                                JOINT RightFinger41
                                {
                                    OFFSET  -3.717550   0.000000   0.000000
                                    CHANNELS 3 Zrotation Xrotation Yrotation
                                    JOINT RightFinger42
                                    {
                                        OFFSET  -1.858760   0.000000   0.000000
                                        CHANNELS 3 Zrotation Xrotation Yrotation
                                        End Site
                                        {
                                            OFFSET  -1.818440   0.000000   0.000000
                                        }
                                    }
                                }
                            }
                        }
                    }
                }
            }
        }
    }
    JOINT LeftHip
    {
        OFFSET   9.783030   0.000000   0.000000
        CHANNELS 3 Zrotation Xrotation Yrotation
        JOINT LeftKnee
        {
            OFFSET   0.000063 -41.789100   0.000608
            CHANNELS 3 Zrotation Xrotation Yrotation
            JOINT LeftAnkle
            {
                OFFSET   0.000048 -41.133200  -0.000184
                CHANNELS 3 Zrotation Xrotation Yrotation
                JOINT LeftToe
                {
                    OFFSET   0.000000  -6.358960  14.674500
                    CHANNELS 3 Zrotation Xrotation Yrotation
                    End Site
                    {
                        OFFSET   0.000000   0.000000   3.913200
                    }
                }
            }
        }
    }
    JOINT RightHip
    {
        OFFSET  -9.783030   0.000000   0.000000
        CHANNELS 3 Zrotation Xrotation Yrotation
        JOINT RightKnee
        {
            OFFSET   0.000071 -41.789100   0.001239
            CHANNELS 3 Zrotation Xrotation Yrotation
            JOINT RightAnkle
            {
                OFFSET   0.000037 -41.133200  -0.000166
                CHANNELS 3 Zrotation Xrotation Yrotation
                JOINT RightToe
                {
                    OFFSET   0.000000  -6.358960  14.674500
                    CHANNELS 3 Zrotation Xrotation Yrotation
                    End Site
                    {
                        OFFSET   0.000000   0.000000   3.913200
                    }
                }
            }
        }
    }
}
MOTION
Frames: 4
Frame Time:   0.016667
 -0.537170  89.428200  -1.030480  -8.926530  -8.351790 -24.498300  -0.254587   5.647310  -0.397870  -0.473001  11.296200  -0.776081   6.265250   0.548649  -0.060284  10.295400   1.072790  13.693900  -0.172272   0.358305  -3.563160 -71.771000  19.702900  -1.161160  -2.834530  -5.870180 -15.170600  14.322800 -12.626600   6.622640  37.304300  26.790200 -55.001800 -30.774400   0.047321   0.028255 -10.387300   0.025690  -0.018872 -30.398500   5.809600  -9.789190 -25.279000  -0.045946  -0.193073 -17.695200   0.047359  -0.137688 -28.195300  -1.988540   3.703420 -33.878300   0.024533  -0.232952 -22.562700   0.141490  -0.118384 -28.170700  -1.986940   3.704270 -33.680000  -0.105894  -0.130287 -22.430700  -0.002971  -0.144292 -29.267300  -2.057550   3.665580 -43.999700   0.008314   0.002708 -29.303800   0.006077  -0.001119   2.343130 -11.575600  -2.542070 -11.887300 -20.611900  43.202200 -30.823400  -7.346750  18.702200  35.200400  -8.480840  20.406600 -41.555700  31.003800  65.800100  24.271700  -0.001860   0.000854   7.135830   0.000029   0.003007  18.361800   6.325930  18.336900  15.868100   0.008433   0.000244  11.107700  -0.000709   0.000092  20.216100   5.113260  13.582600  20.824700   0.016354  -0.001092  13.869300   0.008446  -0.006534  17.888000   4.341160  13.213400  18.388000   0.002085   0.001354  12.246400   0.001343   0.000217  18.774700   2.322730   6.750890  28.359900   0.031388  -0.004201  18.887700   0.020096  -0.001130   4.491110  16.655200   7.601280   1.173410   0.257921  19.544900  -1.718490  -6.380850   7.952520   0.000000   0.000000   0.000000   4.352210   9.517690  -2.385900  -1.336490   2.477820  -1.307560   2.130870  -1.205720   7.888540  -0.000000   0.000000   0.000000
 -0.551253  89.432400  -1.037120  -8.925930  -8.341380 -24.561100  -0.249241   5.644490  -0.402053  -0.461830  11.290600  -0.785061   6.229040   0.561602  -0.061287  10.236100   1.098580  13.745400  -0.189582   0.358093  -3.541700 -71.807600  19.643800  -1.060040  -2.875000  -5.838040 -15.107200  14.270600 -12.590800   6.589040  37.302600  26.783700 -55.018900 -30.772200   0.011951   0.007158 -10.386100   0.006961  -0.006670 -30.364900   5.810180  -9.802800 -25.252100  -0.046778  -0.081208 -17.676500  -0.001112  -0.073160 -28.191800  -1.979720   3.687550 -33.846600  -0.006662  -0.116427 -22.541700   0.061860  -0.102230 -28.162800  -1.977830   3.688560 -33.613600  -0.136007  -0.146935 -22.386600  -0.032715  -0.119774 -29.240600  -2.046940   3.650700 -43.958800   0.013289   0.003489 -29.276600   0.008356  -0.001095   2.370840 -11.547800  -2.529040 -11.904000 -20.282300  43.056500 -30.930100  -8.806740  18.757500  37.687900 -12.150200  24.180800 -42.915700  32.359000  66.640300  23.801600  -0.001810   0.000871   6.900780   0.000000   0.003043  18.141200   6.183060  18.164500  15.659200   0.008225   0.000247  10.961400  -0.000569   0.000063  19.923300   5.057780  13.642000  20.530200   0.016997  -0.001144  13.673100   0.007856  -0.006625  17.910800   4.357940  13.208500  18.413100   0.011850   0.001615  12.263100   0.008002   0.000220  18.391700   2.328490   6.918710  27.789200   0.035948  -0.004188  18.507600   0.022922  -0.001112   4.480050  16.678400   7.597240   1.171100   0.221725  19.572700  -1.712800  -6.363240   7.994580   0.000000   0.000000   0.000000   4.343020   9.510820  -2.385260  -1.327820   2.460050  -1.305280   2.125160  -1.186070   7.947970  -0.000000   0.000000  -0.000000
 -0.561396  89.434600  -1.042760  -8.926250  -8.337240 -24.624900  -0.241786   5.644620  -0.408293  -0.446130  11.290800  -0.798643   6.196960   0.576002  -0.062731  10.183500   1.127180  13.796900  -0.210861   0.360074  -3.520250 -71.840900  19.582000  -0.975532  -2.911580  -5.798260 -15.037100  14.238800 -12.550600   6.565020  37.298800  26.761100 -55.031800 -30.761700   0.003954   0.002365 -10.380800   0.002912  -0.005932 -30.333700   5.810580  -9.813340 -25.227000  -0.033401  -0.025238 -17.659000  -0.012949  -0.032162 -28.188700  -1.973420   3.676330 -33.818000  -0.018290  -0.045708 -22.522700   0.017960  -0.075489 -28.155600  -1.971280   3.677490 -33.553800  -0.115915  -0.103896 -22.346800  -0.036871  -0.084549 -29.219000  -2.039250   3.640270 -43.925800   0.020029   0.004261 -29.254600   0.012129  -0.001088   2.400310 -11.521700  -2.511160 -11.957000 -19.895200  42.918500 -31.106900 -10.022400  18.854100  39.571300 -15.367600  27.537000 -43.971700  33.665400  67.690900  23.643300  -0.001759   0.000816   6.821640   0.000000   0.003080  17.755800   5.996890  18.037400  15.313800   0.008075   0.000254  10.719600  -0.000425   0.000033  19.454600   4.934920  13.626900  20.048700   0.012363  -0.001196  13.352400   0.007562  -0.006735  17.619900   4.324900  13.307900  18.124100   0.010493   0.001531  12.070700   0.006086   0.000218  17.710700   2.323850   7.211710  26.778800   0.027504  -0.004164  17.834600   0.017458  -0.001096   4.468590  16.685800   7.599060   1.166190   0.222232  19.599300  -1.708790  -6.364010   8.033420   0.000000   0.000000  -0.000000   4.334580   9.508290  -2.384870  -1.321690   2.441940  -1.292140   2.119150  -1.166690   8.001010   0.000000   0.000000   0.000000
 -0.568967  89.435900  -1.048620  -8.927040  -8.333520 -24.687400  -0.233189   5.645580  -0.412276  -0.428478  11.292700  -0.807328   6.169630   0.591473  -0.064392  10.138800   1.157860  13.825100  -0.230721   0.365521  -3.496560 -71.858800  19.548300  -0.933882  -2.943670  -5.776510 -14.964600  14.214800 -12.511000   6.548240  37.284800  26.724700 -55.035200 -30.747100   0.002620   0.001579 -10.373600   0.002328  -0.005827 -30.306600   5.811960  -9.828760 -25.205500  -0.017822  -0.002185 -17.643900  -0.014640  -0.011918 -28.186400  -1.964230   3.659640 -33.794300  -0.023190  -0.012438 -22.507000  -0.003202  -0.048792 -28.149500  -1.961880   3.660930 -33.501700  -0.080500  -0.042863 -22.312100  -0.037465  -0.048322 -29.201300  -2.028790   3.624300 -43.898300   0.024211   0.005014 -29.236300   0.014580  -0.001087   2.430560 -11.498300  -2.486270 -12.040100 -19.497700  42.785700 -31.344300 -10.995000  18.972200  40.884900 -18.030300  30.378200 -44.909600  34.907100  68.799400  23.620700  -0.001708   0.000761   6.810330   0.000000   0.003117  17.333100   5.768280  17.818800  14.927900   0.007996   0.000261  10.449500  -0.000280  -0.000000  18.945700   4.750540  13.535300  19.517300   0.005444  -0.001248  12.998500   0.007445  -0.006843  17.119900   4.217560  13.406000  17.619500   0.007269   0.001327  11.734600   0.002938   0.000213  16.977200   2.314500   7.523310  25.690900   0.014432  -0.004141  17.110100   0.009029  -0.001079   4.459090  16.689700   7.601450   1.164060   0.225998  19.623800  -1.706110  -6.369890   8.070120   0.000000   0.000000  -0.000000   4.327110   9.507640  -2.383530  -1.316320   2.425400  -1.273710   2.113040  -1.147850   8.047720  -0.000000   0.000000  -0.000000
